<mxfile host="app.diagrams.net" modified="2021-11-02T02:10:59.545Z" agent="5.0 (Windows NT 10.0; Win64; x64) AppleWebKit/537.36 (KHTML, like Gecko) Chrome/95.0.4638.69 Safari/537.36" etag="16-a-UlDpMKrwVdyA4aX" version="15.6.5" type="github">
  <diagram name="Page-1" id="e7e014a7-5840-1c2e-5031-d8a46d1fe8dd">
    <mxGraphModel dx="1422" dy="794" grid="1" gridSize="10" guides="1" tooltips="1" connect="1" arrows="1" fold="1" page="1" pageScale="1" pageWidth="827" pageHeight="1169" background="none" math="0" shadow="0">
      <root>
        <mxCell id="0" />
        <mxCell id="1" parent="0" />
        <mxCell id="QjmYSRVaIjhh8NtyJCxx-41" value=" Withdraw Cash Activity Diagram" style="swimlane;childLayout=stackLayout;resizeParent=1;resizeParentMax=0;startSize=20;fontColor=default;fillColor=default;strokeColor=default;" vertex="1" parent="1">
          <mxGeometry x="40" y="30" width="759" height="1090" as="geometry">
            <mxRectangle x="400" y="170" width="60" height="20" as="alternateBounds" />
          </mxGeometry>
        </mxCell>
        <mxCell id="QjmYSRVaIjhh8NtyJCxx-42" value="顧客" style="swimlane;startSize=20;fontColor=default;fillColor=default;strokeColor=default;" vertex="1" parent="QjmYSRVaIjhh8NtyJCxx-41">
          <mxGeometry y="20" width="253" height="1070" as="geometry">
            <mxRectangle y="20" width="30" height="460" as="alternateBounds" />
          </mxGeometry>
        </mxCell>
        <mxCell id="QjmYSRVaIjhh8NtyJCxx-51" value="" style="ellipse;fillColor=#000000;strokeColor=none;fontColor=default;" vertex="1" parent="QjmYSRVaIjhh8NtyJCxx-42">
          <mxGeometry x="111.5" y="30" width="30" height="30" as="geometry" />
        </mxCell>
        <mxCell id="QjmYSRVaIjhh8NtyJCxx-52" value="開始" style="html=1;align=center;verticalAlign=top;rounded=1;absoluteArcSize=1;arcSize=10;dashed=0;fontColor=default;strokeColor=default;fillColor=default;" vertex="1" parent="QjmYSRVaIjhh8NtyJCxx-42">
          <mxGeometry x="101.5" y="90" width="50" height="30" as="geometry" />
        </mxCell>
        <mxCell id="QjmYSRVaIjhh8NtyJCxx-54" value="插入卡片" style="html=1;align=center;verticalAlign=top;rounded=1;absoluteArcSize=1;arcSize=10;dashed=0;fontColor=default;strokeColor=default;fillColor=default;" vertex="1" parent="QjmYSRVaIjhh8NtyJCxx-42">
          <mxGeometry x="79.5" y="150" width="94" height="30" as="geometry" />
        </mxCell>
        <mxCell id="QjmYSRVaIjhh8NtyJCxx-56" value="輸入密碼" style="html=1;align=center;verticalAlign=top;rounded=1;absoluteArcSize=1;arcSize=10;dashed=0;fontColor=default;strokeColor=default;fillColor=default;" vertex="1" parent="QjmYSRVaIjhh8NtyJCxx-42">
          <mxGeometry x="79.5" y="220" width="94" height="30" as="geometry" />
        </mxCell>
        <mxCell id="QjmYSRVaIjhh8NtyJCxx-43" value="ATM" style="swimlane;startSize=20;fontColor=default;fillColor=default;strokeColor=default;" vertex="1" parent="QjmYSRVaIjhh8NtyJCxx-41">
          <mxGeometry x="253" y="20" width="253" height="1070" as="geometry" />
        </mxCell>
        <mxCell id="QjmYSRVaIjhh8NtyJCxx-53" value="顯示請插入卡片" style="html=1;align=center;verticalAlign=top;rounded=1;absoluteArcSize=1;arcSize=10;dashed=0;fontColor=default;strokeColor=default;fillColor=default;" vertex="1" parent="QjmYSRVaIjhh8NtyJCxx-43">
          <mxGeometry x="79.5" y="90" width="94" height="30" as="geometry" />
        </mxCell>
        <mxCell id="QjmYSRVaIjhh8NtyJCxx-55" value="顯示請輸入密碼" style="html=1;align=center;verticalAlign=top;rounded=1;absoluteArcSize=1;arcSize=10;dashed=0;fontColor=default;strokeColor=default;fillColor=default;" vertex="1" parent="QjmYSRVaIjhh8NtyJCxx-43">
          <mxGeometry x="27" y="190" width="94" height="30" as="geometry" />
        </mxCell>
        <mxCell id="QjmYSRVaIjhh8NtyJCxx-58" value="" style="rhombus;fontColor=default;strokeColor=default;fillColor=default;" vertex="1" parent="QjmYSRVaIjhh8NtyJCxx-43">
          <mxGeometry x="179" y="190" width="30" height="30" as="geometry" />
        </mxCell>
        <mxCell id="QjmYSRVaIjhh8NtyJCxx-59" value="顯示卡片錯誤" style="html=1;align=center;verticalAlign=top;rounded=1;absoluteArcSize=1;arcSize=10;dashed=0;fontColor=default;strokeColor=default;fillColor=default;" vertex="1" parent="QjmYSRVaIjhh8NtyJCxx-43">
          <mxGeometry x="147" y="260" width="94" height="30" as="geometry" />
        </mxCell>
        <mxCell id="QjmYSRVaIjhh8NtyJCxx-60" value="退出卡片" style="html=1;align=center;verticalAlign=top;rounded=1;absoluteArcSize=1;arcSize=10;dashed=0;fontColor=default;strokeColor=default;fillColor=default;" vertex="1" parent="QjmYSRVaIjhh8NtyJCxx-43">
          <mxGeometry x="147" y="320" width="94" height="30" as="geometry" />
        </mxCell>
        <mxCell id="QjmYSRVaIjhh8NtyJCxx-62" value="" style="ellipse;html=1;shape=endState;fillColor=#000000;strokeColor=#000000;fontColor=default;" vertex="1" parent="QjmYSRVaIjhh8NtyJCxx-43">
          <mxGeometry x="179" y="390" width="30" height="30" as="geometry" />
        </mxCell>
        <mxCell id="QjmYSRVaIjhh8NtyJCxx-64" value="" style="rhombus;fontColor=default;strokeColor=default;fillColor=default;" vertex="1" parent="QjmYSRVaIjhh8NtyJCxx-43">
          <mxGeometry x="59" y="260" width="30" height="30" as="geometry" />
        </mxCell>
        <mxCell id="QjmYSRVaIjhh8NtyJCxx-44" value="銀行" style="swimlane;startSize=20;fontColor=default;fillColor=default;strokeColor=default;" vertex="1" parent="QjmYSRVaIjhh8NtyJCxx-41">
          <mxGeometry x="506" y="20" width="253" height="1070" as="geometry" />
        </mxCell>
        <mxCell id="QjmYSRVaIjhh8NtyJCxx-57" value="授權卡片" style="html=1;align=center;verticalAlign=top;rounded=1;absoluteArcSize=1;arcSize=10;dashed=0;fontColor=default;strokeColor=default;fillColor=default;" vertex="1" parent="QjmYSRVaIjhh8NtyJCxx-44">
          <mxGeometry x="79.5" y="150" width="94" height="30" as="geometry" />
        </mxCell>
        <mxCell id="QjmYSRVaIjhh8NtyJCxx-63" value="授權密碼" style="html=1;align=center;verticalAlign=top;rounded=1;absoluteArcSize=1;arcSize=10;dashed=0;fontColor=default;strokeColor=default;fillColor=default;" vertex="1" parent="QjmYSRVaIjhh8NtyJCxx-44">
          <mxGeometry x="79.5" y="220" width="94" height="30" as="geometry" />
        </mxCell>
      </root>
    </mxGraphModel>
  </diagram>
</mxfile>
